<mxfile host="app.diagrams.net" modified="2020-09-01T22:20:53.867Z" agent="5.0 (Windows)" etag="aUL8Psl11EKU-Z-QLukU" version="13.6.6" type="github">
  <diagram name="Page-1" id="b5b7bab2-c9e2-2cf4-8b2a-24fd1a2a6d21">
    <mxGraphModel dx="1422" dy="801" grid="1" gridSize="10" guides="1" tooltips="1" connect="1" arrows="1" fold="1" page="1" pageScale="1" pageWidth="827" pageHeight="1169" background="#ffffff" math="0" shadow="0">
      <root>
        <mxCell id="0" />
        <mxCell id="1" parent="0" />
        <mxCell id="TnWyMCdALCPwSi7lhf3z-5" style="edgeStyle=orthogonalEdgeStyle;rounded=0;orthogonalLoop=1;jettySize=auto;html=1;exitX=1;exitY=0.5;exitDx=0;exitDy=0;entryX=0;entryY=0.5;entryDx=0;entryDy=0;" edge="1" parent="1" source="TnWyMCdALCPwSi7lhf3z-1" target="TnWyMCdALCPwSi7lhf3z-3">
          <mxGeometry relative="1" as="geometry" />
        </mxCell>
        <mxCell id="TnWyMCdALCPwSi7lhf3z-1" value="&lt;div&gt;&lt;b&gt;&lt;font style=&quot;font-size: 22px&quot;&gt;0&lt;/font&gt;&lt;/b&gt;&lt;br&gt;&lt;/div&gt;" style="rounded=0;whiteSpace=wrap;html=1;" vertex="1" parent="1">
          <mxGeometry x="80" y="60" width="80" height="40" as="geometry" />
        </mxCell>
        <mxCell id="TnWyMCdALCPwSi7lhf3z-6" value="" style="edgeStyle=orthogonalEdgeStyle;rounded=0;orthogonalLoop=1;jettySize=auto;html=1;" edge="1" parent="1" source="TnWyMCdALCPwSi7lhf3z-3" target="TnWyMCdALCPwSi7lhf3z-4">
          <mxGeometry relative="1" as="geometry" />
        </mxCell>
        <mxCell id="TnWyMCdALCPwSi7lhf3z-3" value="&lt;div&gt;&lt;b&gt;&lt;font style=&quot;font-size: 22px&quot;&gt;1&lt;/font&gt;&lt;/b&gt;&lt;br&gt;&lt;/div&gt;" style="rounded=0;whiteSpace=wrap;html=1;" vertex="1" parent="1">
          <mxGeometry x="200" y="60" width="80" height="40" as="geometry" />
        </mxCell>
        <mxCell id="TnWyMCdALCPwSi7lhf3z-8" value="" style="edgeStyle=orthogonalEdgeStyle;rounded=0;orthogonalLoop=1;jettySize=auto;html=1;" edge="1" parent="1" source="TnWyMCdALCPwSi7lhf3z-4" target="TnWyMCdALCPwSi7lhf3z-7">
          <mxGeometry relative="1" as="geometry" />
        </mxCell>
        <mxCell id="TnWyMCdALCPwSi7lhf3z-4" value="&lt;div&gt;&lt;b&gt;&lt;font style=&quot;font-size: 22px&quot;&gt;2&lt;/font&gt;&lt;/b&gt;&lt;/div&gt;" style="rounded=0;whiteSpace=wrap;html=1;" vertex="1" parent="1">
          <mxGeometry x="320" y="60" width="80" height="40" as="geometry" />
        </mxCell>
        <mxCell id="TnWyMCdALCPwSi7lhf3z-19" value="" style="edgeStyle=orthogonalEdgeStyle;rounded=0;orthogonalLoop=1;jettySize=auto;html=1;labelBackgroundColor=#9E9E9E;fillColor=#9E9E9E;" edge="1" parent="1" source="TnWyMCdALCPwSi7lhf3z-7" target="TnWyMCdALCPwSi7lhf3z-9">
          <mxGeometry relative="1" as="geometry">
            <Array as="points">
              <mxPoint x="550" y="80" />
              <mxPoint x="550" y="80" />
            </Array>
          </mxGeometry>
        </mxCell>
        <mxCell id="TnWyMCdALCPwSi7lhf3z-20" style="edgeStyle=orthogonalEdgeStyle;rounded=0;orthogonalLoop=1;jettySize=auto;html=1;entryX=0;entryY=0.5;entryDx=0;entryDy=0;labelBackgroundColor=#9E9E9E;fillColor=#9E9E9E;" edge="1" parent="1" source="TnWyMCdALCPwSi7lhf3z-7" target="TnWyMCdALCPwSi7lhf3z-10">
          <mxGeometry relative="1" as="geometry">
            <Array as="points">
              <mxPoint x="560" y="80" />
              <mxPoint x="560" y="160" />
            </Array>
          </mxGeometry>
        </mxCell>
        <mxCell id="TnWyMCdALCPwSi7lhf3z-21" style="edgeStyle=orthogonalEdgeStyle;rounded=0;orthogonalLoop=1;jettySize=auto;html=1;entryX=0;entryY=0.5;entryDx=0;entryDy=0;labelBackgroundColor=#9E9E9E;fillColor=#9E9E9E;" edge="1" parent="1" source="TnWyMCdALCPwSi7lhf3z-7" target="TnWyMCdALCPwSi7lhf3z-11">
          <mxGeometry relative="1" as="geometry">
            <Array as="points">
              <mxPoint x="560" y="80" />
              <mxPoint x="560" y="240" />
            </Array>
          </mxGeometry>
        </mxCell>
        <mxCell id="TnWyMCdALCPwSi7lhf3z-22" style="edgeStyle=orthogonalEdgeStyle;rounded=0;orthogonalLoop=1;jettySize=auto;html=1;entryX=0;entryY=0.5;entryDx=0;entryDy=0;labelBackgroundColor=#9E9E9E;fillColor=#9E9E9E;" edge="1" parent="1" source="TnWyMCdALCPwSi7lhf3z-7" target="TnWyMCdALCPwSi7lhf3z-12">
          <mxGeometry relative="1" as="geometry">
            <Array as="points">
              <mxPoint x="560" y="80" />
              <mxPoint x="560" y="320" />
            </Array>
          </mxGeometry>
        </mxCell>
        <mxCell id="TnWyMCdALCPwSi7lhf3z-23" style="edgeStyle=orthogonalEdgeStyle;rounded=0;orthogonalLoop=1;jettySize=auto;html=1;entryX=0;entryY=0.5;entryDx=0;entryDy=0;labelBackgroundColor=#9E9E9E;fillColor=#9E9E9E;" edge="1" parent="1" source="TnWyMCdALCPwSi7lhf3z-7" target="TnWyMCdALCPwSi7lhf3z-13">
          <mxGeometry relative="1" as="geometry">
            <Array as="points">
              <mxPoint x="560" y="80" />
              <mxPoint x="560" y="400" />
            </Array>
          </mxGeometry>
        </mxCell>
        <mxCell id="TnWyMCdALCPwSi7lhf3z-7" value="&lt;b&gt;&lt;font style=&quot;font-size: 22px&quot;&gt;3&lt;/font&gt;&lt;/b&gt;" style="rounded=0;whiteSpace=wrap;html=1;" vertex="1" parent="1">
          <mxGeometry x="440" y="60" width="80" height="40" as="geometry" />
        </mxCell>
        <mxCell id="TnWyMCdALCPwSi7lhf3z-9" value="&lt;b&gt;&lt;font style=&quot;font-size: 22px&quot;&gt;3&lt;/font&gt;&lt;/b&gt;" style="rounded=0;whiteSpace=wrap;html=1;" vertex="1" parent="1">
          <mxGeometry x="600" y="60" width="80" height="40" as="geometry" />
        </mxCell>
        <mxCell id="TnWyMCdALCPwSi7lhf3z-10" value="&lt;b&gt;&lt;font style=&quot;font-size: 22px&quot;&gt;3&lt;/font&gt;&lt;/b&gt;" style="rounded=0;whiteSpace=wrap;html=1;" vertex="1" parent="1">
          <mxGeometry x="600" y="140" width="80" height="40" as="geometry" />
        </mxCell>
        <mxCell id="TnWyMCdALCPwSi7lhf3z-11" value="&lt;b&gt;&lt;font style=&quot;font-size: 22px&quot;&gt;3&lt;/font&gt;&lt;/b&gt;" style="rounded=0;whiteSpace=wrap;html=1;" vertex="1" parent="1">
          <mxGeometry x="600" y="220" width="80" height="40" as="geometry" />
        </mxCell>
        <mxCell id="TnWyMCdALCPwSi7lhf3z-12" value="&lt;b&gt;&lt;font style=&quot;font-size: 22px&quot;&gt;3&lt;/font&gt;&lt;/b&gt;" style="rounded=0;whiteSpace=wrap;html=1;" vertex="1" parent="1">
          <mxGeometry x="600" y="300" width="80" height="40" as="geometry" />
        </mxCell>
        <mxCell id="TnWyMCdALCPwSi7lhf3z-13" value="&lt;b&gt;&lt;font style=&quot;font-size: 22px&quot;&gt;3&lt;/font&gt;&lt;/b&gt;" style="rounded=0;whiteSpace=wrap;html=1;" vertex="1" parent="1">
          <mxGeometry x="600" y="380" width="80" height="40" as="geometry" />
        </mxCell>
        <mxCell id="TnWyMCdALCPwSi7lhf3z-14" value="&lt;b&gt;&lt;font style=&quot;font-size: 22px&quot;&gt;3&lt;/font&gt;&lt;/b&gt;" style="rounded=0;whiteSpace=wrap;html=1;" vertex="1" parent="1">
          <mxGeometry x="600" y="460" width="80" height="40" as="geometry" />
        </mxCell>
        <mxCell id="TnWyMCdALCPwSi7lhf3z-15" value="&lt;b&gt;&lt;font style=&quot;font-size: 22px&quot;&gt;3&lt;/font&gt;&lt;/b&gt;" style="rounded=0;whiteSpace=wrap;html=1;" vertex="1" parent="1">
          <mxGeometry x="600" y="540" width="80" height="40" as="geometry" />
        </mxCell>
        <mxCell id="TnWyMCdALCPwSi7lhf3z-17" value="" style="shape=flexArrow;endArrow=classic;html=1;labelBackgroundColor=#9E9E9E;fillColor=#9E9E9E;width=12;endSize=6;" edge="1" parent="1">
          <mxGeometry width="50" height="50" relative="1" as="geometry">
            <mxPoint x="20" y="79.5" as="sourcePoint" />
            <mxPoint x="70" y="79.5" as="targetPoint" />
          </mxGeometry>
        </mxCell>
        <mxCell id="TnWyMCdALCPwSi7lhf3z-18" value="&lt;h1&gt;Flow Diagram - Wastip App&lt;br&gt;&lt;/h1&gt;&lt;p&gt;Lorem ipsum dolor sit amet, consectetur adipisicing elit, sed do eiusmod tempor incididunt ut labore et dolore magna aliqua.&lt;/p&gt;" style="text;html=1;strokeColor=none;fillColor=none;spacing=5;spacingTop=-20;whiteSpace=wrap;overflow=hidden;rounded=0;" vertex="1" parent="1">
          <mxGeometry x="80" y="150" width="360" height="420" as="geometry" />
        </mxCell>
      </root>
    </mxGraphModel>
  </diagram>
</mxfile>
